<?xml version="1.0" standalone="no"?>
<!DOCTYPE svg PUBLIC "-//W3C//DTD SVG 20010904//EN"
 "http://www.w3.org/TR/2001/REC-SVG-20010904/DTD/svg10.dtd">
<svg version="1.0" xmlns="http://www.w3.org/2000/svg"
 width="164.000000pt" height="172.000000pt" viewBox="0 0 164.000000 172.000000"
 preserveAspectRatio="xMidYMid meet">

<g transform="translate(0.000000,172.000000) scale(0.100000,-0.100000)"
fill="#fff" stroke="none">
<path d="M701 1549 c-244 -43 -455 -249 -506 -494 -19 -93 -20 -227 0 -265 32
-63 5 -60 618 -60 l559 0 35 35 35 35 -4 128 c-4 91 -11 145 -26 192 -63 192
-224 351 -416 409 -81 25 -218 34 -295 20z m220 -103 c37 -8 95 -29 130 -46
66 -34 171 -127 202 -179 l18 -31 -29 0 c-81 0 -210 -73 -268 -151 -41 -57
-74 -135 -74 -179 l0 -30 -85 0 c-84 0 -85 0 -90 28 -23 109 -58 175 -127 238
-51 46 -132 83 -197 91 l-50 6 29 42 c69 100 194 182 320 209 84 19 140 19
221 2z m-450 -385 c81 -42 130 -107 153 -203 l6 -28 -175 0 -175 0 0 73 c0 63
11 134 25 176 8 21 112 10 166 -18z m858 -15 c6 -25 11 -83 11 -130 l0 -86
-170 0 -170 0 0 24 c0 32 22 83 58 132 41 57 136 104 207 104 l53 0 11 -44z"/>
<path d="M373 646 c-94 -31 -166 -90 -192 -158 -7 -18 -18 -28 -37 -30 -57 -7
-59 -83 -3 -95 20 -4 34 -14 40 -29 4 -13 26 -43 48 -67 146 -159 448 -128
542 56 23 44 63 52 73 14 9 -36 70 -100 122 -129 59 -32 161 -52 218 -43 117
18 217 79 249 152 14 29 27 42 50 49 25 7 33 15 35 37 4 35 -13 57 -43 57 -16
0 -26 8 -33 29 -16 46 -79 108 -140 138 -50 24 -69 27 -157 28 -84 0 -108 -4
-152 -24 -58 -26 -139 -105 -149 -145 -4 -19 -13 -26 -29 -26 -18 0 -29 11
-45 45 -25 51 -76 96 -147 127 -60 27 -189 34 -250 14z m240 -119 c103 -61
107 -157 8 -224 -159 -108 -429 29 -336 171 38 58 112 87 211 82 56 -2 82 -9
117 -29z m648 6 c92 -47 121 -117 77 -183 -56 -83 -209 -112 -313 -60 -91 45
-121 128 -68 191 67 79 203 103 304 52z"/>
</g>
</svg>
