<?xml version="1.0" standalone="no"?>
<!DOCTYPE svg PUBLIC "-//W3C//DTD SVG 20010904//EN"
 "http://www.w3.org/TR/2001/REC-SVG-20010904/DTD/svg10.dtd">
<svg version="1.0" xmlns="http://www.w3.org/2000/svg"
 width="306.000000pt" height="284.000000pt" viewBox="0 0 306.000000 284.000000"
 preserveAspectRatio="xMidYMid meet">

<g transform="translate(0.000000,284.000000) scale(0.100000,-0.100000)"
fill="#fff" stroke="none">
<path d="M811 2399 c-52 -17 -76 -32 -121 -77 -70 -70 -93 -131 -92 -239 1
-71 0 -73 -24 -73 -39 0 -126 -93 -152 -163 -43 -114 -24 -238 49 -321 37 -42
39 -45 20 -55 -30 -17 -55 -96 -55 -177 0 -96 43 -187 116 -244 27 -22 54 -40
59 -40 5 0 -7 -21 -26 -46 -41 -54 -43 -72 -11 -141 83 -177 300 -244 461
-142 l48 30 56 -24 c72 -32 165 -63 220 -72 l44 -7 -102 -97 c-110 -106 -121
-129 -78 -169 41 -39 62 -29 171 76 56 54 111 106 123 116 l23 19 119 -117
c128 -125 149 -136 189 -93 40 42 30 64 -79 168 l-100 97 78 17 c43 9 115 32
159 51 l82 35 47 -30 c162 -102 378 -36 461 142 32 69 30 87 -10 140 l-33 44
34 18 c84 46 147 160 148 270 0 79 -25 159 -56 176 -19 10 -17 13 20 55 22 25
47 68 56 95 18 54 21 146 6 197 -25 84 -119 192 -167 192 -21 0 -22 4 -21 73
1 92 -22 162 -75 221 -78 90 -192 130 -304 108 -71 -14 -89 -33 -105 -110 -13
-65 -3 -145 27 -209 43 -91 168 -173 265 -173 l40 0 -30 -44 c-31 -45 -61
-137 -61 -187 0 -48 38 -150 71 -192 30 -37 31 -40 13 -50 -45 -25 -114 -102
-135 -150 -19 -42 -23 -69 -23 -143 l1 -90 -42 -18 c-65 -26 -119 -79 -156
-150 -31 -59 -39 -68 -89 -90 -210 -94 -460 -94 -669 0 -51 22 -61 32 -80 74
-32 71 -92 133 -154 161 l-54 24 1 90 c0 73 -4 100 -23 142 -22 49 -91 125
-135 150 -19 10 -18 12 9 44 89 107 96 256 16 382 l-31 47 40 0 c85 0 197 65
246 141 13 21 31 66 41 99 14 52 15 72 6 126 -16 89 -31 110 -93 123 -70 15
-105 13 -179 -10z m141 -141 c19 -103 -79 -208 -194 -208 -26 0 -28 3 -28 44
0 54 20 103 57 138 36 34 67 47 119 47 36 1 42 -2 46 -21z m1275 11 c68 -25
113 -95 113 -175 l0 -47 -49 6 c-104 12 -162 70 -169 168 l-4 59 40 0 c22 0
53 -5 69 -11z m-1596 -430 c64 -45 89 -156 51 -228 -28 -57 -46 -61 -88 -21
-63 60 -80 132 -49 207 29 69 41 75 86 42z m1887 -29 c28 -55 28 -111 1 -167
-25 -53 -74 -91 -98 -76 -49 30 -66 145 -31 212 21 43 67 82 90 78 8 -1 25
-22 38 -47z m-1851 -471 c34 -13 80 -55 99 -91 8 -15 14 -52 14 -83 0 -53 -1
-55 -27 -55 -38 1 -100 24 -125 47 -32 28 -58 93 -58 146 0 47 0 47 34 47 19
0 47 -5 63 -11z m1831 -53 c-6 -101 -61 -159 -163 -173 l-45 -6 0 51 c0 62 13
98 48 136 34 36 77 55 126 56 l38 0 -4 -64z m-1569 -375 c17 -12 40 -35 52
-52 20 -29 20 -31 4 -49 -43 -47 -165 -53 -224 -10 -18 12 -41 36 -51 53 -19
30 -18 30 5 49 39 30 68 38 127 34 37 -3 68 -11 87 -25z m1414 0 c36 -22 36
-23 22 -51 -8 -16 -31 -41 -51 -56 -61 -47 -184 -44 -229 6 -17 19 -17 21 10
56 56 74 169 94 248 45z"/>
<path d="M1513 2039 c-12 -4 -57 -61 -102 -127 l-79 -119 -134 -37 c-73 -21
-141 -45 -150 -53 -35 -32 -22 -66 70 -182 l87 -111 0 -151 0 -152 27 -20 26
-20 139 51 138 52 133 -50 c72 -28 139 -50 147 -50 8 0 24 9 36 21 20 20 21
30 18 170 l-4 149 88 111 c91 116 104 150 70 182 -10 8 -78 32 -151 53 l-133
37 -82 120 c-83 122 -105 141 -144 126z m87 -279 c52 -79 53 -80 119 -99 36
-11 80 -23 96 -27 17 -4 33 -9 37 -11 4 -2 -22 -41 -58 -86 l-65 -82 3 -107
c2 -60 2 -108 1 -108 -1 0 -46 16 -100 35 l-97 36 -99 -36 c-54 -19 -99 -35
-100 -35 -1 0 -1 49 1 108 l3 109 -66 81 c-43 53 -61 84 -53 87 7 2 33 9 58
15 129 32 134 35 194 126 31 47 60 82 65 80 4 -3 32 -41 61 -86z"/>
</g>
</svg>
