<?xml version="1.0" standalone="no"?>
<!DOCTYPE svg PUBLIC "-//W3C//DTD SVG 20010904//EN"
 "http://www.w3.org/TR/2001/REC-SVG-20010904/DTD/svg10.dtd">
<svg version="1.0" xmlns="http://www.w3.org/2000/svg"
 width="162.000000pt" height="176.000000pt" viewBox="0 0 162.000000 176.000000"
 preserveAspectRatio="xMidYMid meet">

<g transform="translate(0.000000,176.000000) scale(0.100000,-0.100000)"
fill="#fff" stroke="none">
<path d="M205 1528 c-3 -7 -4 -287 -3 -623 l3 -610 220 -5 220 -6 172 -71 172
-71 14 37 c8 20 31 126 52 236 20 110 46 225 57 255 32 90 25 152 -25 207
l-20 22 121 301 121 301 -35 16 c-21 10 -37 13 -43 7 -4 -5 -23 -47 -41 -92
l-33 -84 -96 96 -96 96 -378 0 c-293 0 -379 -3 -382 -12z m665 -198 l0 -120
115 0 c63 0 115 -1 115 -2 0 -2 -24 -63 -53 -137 l-53 -134 -48 -12 c-70 -18
-97 -42 -136 -122 -19 -39 -87 -150 -150 -247 l-115 -176 -127 0 -128 0 0 535
0 535 290 0 290 0 0 -120z m159 28 l64 -68 -71 0 -72 0 0 71 c0 39 3 69 8 67
4 -1 36 -33 71 -70z m0 -544 c23 -29 26 -59 11 -98 l-9 -25 -76 31 c-67 27
-75 33 -69 52 20 67 103 90 143 40z m-56 -188 l34 -14 -32 -176 c-18 -97 -34
-178 -36 -180 -2 -2 -27 7 -56 19 l-52 23 29 74 c16 40 29 78 30 83 0 10 -69
41 -74 33 -1 -1 -16 -38 -32 -80 -16 -43 -33 -78 -39 -77 -5 0 -31 10 -57 22
l-47 22 99 152 100 153 50 -20 c27 -11 64 -26 83 -34z"/>
<path d="M370 1080 l0 -40 250 0 250 0 0 40 0 40 -250 0 -250 0 0 -40z"/>
<path d="M372 918 l3 -43 190 0 190 0 3 43 3 42 -196 0 -196 0 3 -42z"/>
<path d="M370 750 l0 -40 125 0 125 0 0 40 0 40 -125 0 -125 0 0 -40z"/>
<path d="M1200 625 l0 -45 40 0 40 0 0 45 0 45 -40 0 -40 0 0 -45z"/>
<path d="M1260 460 l0 -40 40 0 40 0 0 40 0 40 -40 0 -40 0 0 -40z"/>
<path d="M1150 334 l0 -45 38 3 c36 3 37 4 40 46 l3 42 -40 0 -41 0 0 -46z"/>
</g>
</svg>
