<?xml version="1.0" standalone="no"?>
<!DOCTYPE svg PUBLIC "-//W3C//DTD SVG 20010904//EN"
 "http://www.w3.org/TR/2001/REC-SVG-20010904/DTD/svg10.dtd">
<svg version="1.0" xmlns="http://www.w3.org/2000/svg"
 width="238.000000pt" height="224.000000pt" viewBox="0 0 238.000000 224.000000"
 preserveAspectRatio="xMidYMid meet">

<g transform="translate(0.000000,224.000000) scale(0.100000,-0.100000)"
fill="#ff5c00" stroke="none">
<path d="M1192 2167 c-45 -17 -98 -61 -119 -100 -15 -26 -19 -66 -23 -222 l-5
-190 -342 -5 c-325 -5 -343 -6 -369 -26 -15 -11 -37 -33 -48 -48 -21 -27 -21
-41 -26 -604 l-5 -577 -67 -3 c-80 -3 -94 -18 -84 -89 11 -80 64 -155 141
-196 l40 -22 915 0 c867 0 917 1 952 18 51 26 107 83 129 131 21 47 25 126 7
144 -7 7 -39 12 -75 12 l-63 0 0 414 0 414 30 12 c34 14 97 80 110 116 6 14
10 166 10 347 0 292 -2 326 -19 363 -22 49 -78 97 -130 113 -54 16 -913 14
-959 -2z m970 -126 l33 -29 3 -303 c3 -325 1 -344 -47 -376 -23 -16 -55 -18
-282 -21 l-257 -3 -130 -110 c-72 -60 -134 -109 -137 -109 -3 0 -5 44 -5 99 0
67 -4 102 -12 108 -7 6 -34 13 -61 16 -57 8 -91 29 -106 66 -8 19 -11 119 -9
330 l3 303 33 29 32 29 455 0 455 0 32 -29z m-1112 -591 c3 -62 11 -106 22
-126 24 -44 81 -91 128 -105 l40 -12 0 -128 c0 -135 8 -159 50 -159 11 0 98
65 194 145 l174 145 191 0 191 0 0 -410 0 -410 -455 0 -455 0 0 102 c0 120
-18 168 -77 208 -35 24 -43 25 -217 28 -174 3 -183 2 -225 -20 -71 -38 -91
-86 -91 -215 l0 -104 -77 3 -78 3 -3 551 c-2 546 -2 551 19 578 l21 26 321 -2
322 -3 5 -95z m-46 -846 c12 -12 16 -38 16 -115 l0 -99 -195 0 -195 0 0 99 c0
77 4 103 16 115 23 24 335 24 358 0z m1169 -346 c-10 -18 -34 -41 -53 -53 -34
-20 -51 -20 -893 -23 -608 -2 -870 1 -899 9 -41 10 -108 66 -108 88 0 8 276
11 986 11 l986 0 -19 -32z"/>
<path d="M1356 1877 c-26 -19 -18 -68 14 -84 18 -9 100 -13 305 -13 308 0 327
3 333 55 7 53 -3 55 -333 55 -231 0 -305 -3 -319 -13z"/>
<path d="M1352 1588 c-7 -7 -12 -24 -12 -38 0 -47 12 -50 191 -50 139 0 170 3
183 16 21 21 20 47 -2 67 -16 14 -44 17 -183 17 -115 0 -169 -4 -177 -12z"/>
<path d="M735 1213 c-162 -85 -174 -293 -22 -387 115 -71 269 -17 318 111 13
35 13 120 0 154 -15 42 -72 100 -116 120 -50 23 -139 24 -180 2z m139 -98
c108 -51 72 -215 -47 -215 -49 0 -81 19 -102 60 -30 58 -8 126 49 154 39 20
60 20 100 1z"/>
</g>
</svg>
