<?xml version="1.0" standalone="no"?>
<!DOCTYPE svg PUBLIC "-//W3C//DTD SVG 20010904//EN"
 "http://www.w3.org/TR/2001/REC-SVG-20010904/DTD/svg10.dtd">
<svg version="1.0" xmlns="http://www.w3.org/2000/svg"
 width="238.000000pt" height="234.000000pt" viewBox="0 0 238.000000 234.000000"
 preserveAspectRatio="xMidYMid meet">

<g transform="translate(0.000000,234.000000) scale(0.100000,-0.100000)"
fill="#ff5c00" stroke="none">
<path d="M785 2171 c-50 -22 -91 -69 -105 -119 -5 -20 -10 -81 -10 -134 l0
-98 -48 0 c-155 0 -285 -106 -311 -253 -6 -35 -11 -109 -11 -165 0 -59 -4
-102 -10 -102 -18 0 -83 -65 -96 -97 -32 -75 -10 -150 59 -208 l45 -37 4 -192
c3 -181 5 -194 30 -248 30 -65 89 -127 147 -152 l40 -19 -35 -68 -34 -69 -115
0 c-102 0 -117 -2 -135 -20 -11 -11 -20 -29 -20 -40 0 -11 9 -29 20 -40 20
-20 33 -20 1030 -20 997 0 1010 0 1030 20 19 19 20 33 20 410 0 377 -1 391
-20 410 -13 13 -33 20 -59 20 l-40 0 -3 438 -3 437 -26 56 c-33 71 -87 125
-158 158 l-56 26 -439 3 -439 3 -44 49 c-63 70 -130 87 -208 51z m120 -134
c11 -15 15 -49 15 -119 l0 -98 -60 0 -60 0 0 103 c0 104 7 129 40 139 24 7 49
-3 65 -25z m1012 -108 c38 -14 83 -57 99 -96 11 -26 14 -119 14 -458 l0 -425
-40 0 c-68 0 -80 -21 -80 -145 l0 -105 -168 0 c-129 0 -173 -3 -188 -14 -18
-13 -19 -30 -22 -245 l-3 -231 -132 0 -133 0 -32 65 c-18 36 -32 67 -32 69 0
3 21 15 46 27 52 27 103 79 136 141 21 40 23 58 26 246 l4 202 28 15 c82 42
116 167 68 250 -13 22 -39 50 -58 63 l-35 23 -5 142 c-4 123 -8 148 -28 187
-55 106 -152 169 -274 178 l-68 5 0 58 0 59 424 0 c276 0 435 -4 453 -11z
m-731 -251 c43 -23 81 -71 94 -116 5 -20 10 -83 10 -139 l0 -103 -430 0 -430
0 0 121 c0 107 3 126 22 161 23 39 66 73 116 88 15 5 153 8 307 7 243 -2 284
-4 311 -19z m203 -502 c29 -26 26 -60 -5 -85 -26 -21 -36 -21 -520 -21 -288 0
-503 4 -518 10 -52 19 -54 89 -4 110 13 5 236 8 524 7 478 -2 503 -3 523 -21z
m-101 -403 c-3 -164 -5 -181 -26 -218 -13 -22 -39 -52 -59 -65 l-37 -25 -312
0 -312 0 -39 31 c-67 54 -73 76 -73 277 l0 177 431 0 431 0 -4 -177z m867 -8
l0 -60 -60 0 -60 0 -3 49 c-5 73 -1 77 65 74 l58 -3 0 -60z m5 -370 l0 -185
-250 0 -250 0 0 185 0 185 250 0 250 0 0 -185z m-1067 -120 c15 -31 27 -58 27
-60 0 -3 -119 -5 -265 -5 -146 0 -265 2 -265 5 0 2 12 29 27 60 l27 55 211 0
211 0 27 -55z"/>
</g>
</svg>
