<?xml version="1.0" standalone="no"?>
<!DOCTYPE svg PUBLIC "-//W3C//DTD SVG 20010904//EN"
 "http://www.w3.org/TR/2001/REC-SVG-20010904/DTD/svg10.dtd">
<svg version="1.0" xmlns="http://www.w3.org/2000/svg"
 width="164.000000pt" height="232.000000pt" viewBox="0 0 164.000000 232.000000"
 preserveAspectRatio="xMidYMid meet">

<g transform="translate(0.000000,232.000000) scale(0.100000,-0.100000)"
fill="#ff5c00" stroke="none">
<path d="M317 2196 c-60 -22 -129 -81 -157 -137 -37 -71 -40 -144 -40 -1007 0
-916 -1 -904 54 -918 14 -3 31 -3 38 1 7 4 74 45 149 91 75 46 141 84 147 84
5 0 76 -41 156 -91 81 -50 157 -92 169 -91 13 0 89 41 169 91 80 50 151 91
157 91 6 0 76 -41 155 -90 79 -50 150 -90 158 -90 9 0 27 9 42 21 l26 20 0
899 c0 881 0 900 -20 954 -26 67 -85 130 -153 162 l-52 24 -480 -1 c-375 0
-488 -3 -518 -13z m1007 -110 c46 -19 94 -81 101 -130 3 -23 5 -409 3 -858
l-3 -817 -120 75 c-66 41 -128 77 -138 80 -12 4 -67 -25 -163 -86 -80 -51
-153 -94 -163 -97 -10 -2 -81 35 -171 91 -84 53 -158 96 -164 96 -6 0 -67 -36
-136 -79 l-125 -78 -3 841 -2 841 23 44 c16 31 36 52 66 68 l44 23 459 0 c367
0 465 -3 492 -14z"/>
<path d="M796 1948 c-10 -15 -16 -45 -16 -84 l0 -62 -37 -13 c-57 -18 -89 -45
-112 -92 -37 -77 -23 -160 35 -206 14 -11 70 -34 124 -52 108 -34 133 -53 128
-95 -7 -59 -106 -72 -216 -28 -72 29 -90 26 -106 -19 -6 -17 -6 -34 1 -50 13
-29 87 -67 143 -74 l40 -6 0 -68 c0 -61 3 -70 26 -88 25 -19 45 -19 72 2 7 6
12 36 12 82 l0 73 36 12 c76 26 134 101 134 175 0 93 -51 142 -191 186 -106
33 -134 54 -120 93 5 12 25 27 49 35 36 13 49 13 122 -4 l83 -19 18 23 c11 13
19 36 19 53 0 25 -6 32 -44 49 -24 10 -58 22 -75 25 -31 6 -31 7 -31 75 0 48
-5 72 -16 83 -22 23 -60 20 -78 -6z"/>
<path d="M456 844 c-23 -22 -20 -60 6 -78 19 -14 71 -16 363 -16 370 0 385 2
385 55 0 55 -1 55 -385 55 -308 0 -356 -2 -369 -16z"/>
<path d="M645 661 c-32 -14 -48 -38 -41 -64 7 -31 45 -47 106 -47 74 0 112 46
77 94 -14 20 -110 31 -142 17z"/>
<path d="M880 657 c-35 -17 -40 -69 -8 -91 18 -13 50 -16 160 -16 125 0 140 2
158 20 34 34 24 71 -23 89 -40 15 -256 14 -287 -2z"/>
</g>
</svg>
