<?xml version="1.0" standalone="no"?>
<!DOCTYPE svg PUBLIC "-//W3C//DTD SVG 20010904//EN"
 "http://www.w3.org/TR/2001/REC-SVG-20010904/DTD/svg10.dtd">
<svg version="1.0" xmlns="http://www.w3.org/2000/svg"
 width="278.000000pt" height="236.000000pt" viewBox="0 0 278.000000 236.000000"
 preserveAspectRatio="xMidYMid meet">

<g transform="translate(0.000000,236.000000) scale(0.100000,-0.100000)"
fill="#ff5c00" stroke="none">
<path d="M1475 2276 c-17 -7 -87 -69 -155 -137 -145 -145 -191 -173 -361 -220
-214 -59 -341 -132 -503 -288 -121 -119 -151 -165 -151 -241 0 -86 35 -145
115 -197 183 -117 214 -153 257 -293 38 -126 67 -184 117 -238 105 -112 261
-135 390 -57 l57 34 77 -46 c179 -106 314 -161 469 -193 130 -27 149 -37 230
-125 70 -75 73 -77 95 -63 47 31 33 70 -65 170 -59 61 -102 82 -227 108 -185
40 -282 82 -535 232 -120 71 -140 87 -140 108 0 23 4 25 51 28 36 2 70 -5 120
-23 99 -38 112 -40 134 -20 11 10 20 24 20 30 0 7 -86 125 -191 261 -105 137
-196 259 -201 270 -20 43 41 94 77 64 8 -6 71 -86 140 -176 70 -90 135 -168
145 -174 23 -12 47 -4 61 22 13 24 19 14 -161 248 -78 102 -147 195 -152 207
-14 30 13 73 46 73 28 0 43 -17 231 -262 99 -131 133 -168 151 -168 25 0 54
24 54 45 0 7 -59 89 -131 181 -135 174 -153 202 -142 230 8 22 50 36 73 24 10
-5 62 -67 116 -137 143 -188 174 -223 193 -223 20 0 51 30 51 48 0 6 -35 58
-78 114 -100 132 -107 144 -93 174 8 18 18 24 45 24 32 0 40 -9 144 -142 60
-79 146 -186 191 -238 105 -121 211 -280 250 -374 17 -41 40 -113 51 -160 40
-173 135 -297 188 -244 20 20 14 47 -22 94 -40 52 -56 93 -84 217 -25 104 -69
199 -151 324 -34 50 -61 97 -61 103 0 6 11 28 25 48 64 98 90 245 60 347 -42
145 -149 248 -317 305 -91 31 -151 79 -228 182 -81 107 -125 138 -195 138 -27
-1 -64 -7 -80 -14z m178 -156 c106 -144 185 -205 330 -255 104 -36 195 -123
218 -208 18 -68 7 -173 -25 -244 -16 -35 -32 -63 -37 -63 -13 0 -111 115 -221
259 -113 148 -136 169 -190 177 -51 9 -81 -1 -123 -37 -19 -17 -35 -26 -35
-20 0 23 -74 61 -118 61 -48 0 -75 -11 -114 -47 -24 -23 -30 -24 -61 -14 -91
30 -187 -42 -187 -140 0 -41 -3 -46 -35 -63 -54 -29 -78 -76 -73 -140 4 -50
11 -62 144 -235 76 -100 140 -186 142 -191 2 -4 -23 -6 -55 -3 -67 5 -113 -14
-147 -60 -41 -56 -18 -150 45 -183 16 -8 29 -18 29 -23 0 -23 -101 -42 -164
-30 -94 17 -148 80 -191 219 -58 190 -123 280 -269 364 -88 52 -116 85 -116
140 0 53 28 93 131 191 133 126 272 205 430 245 206 52 315 120 470 291 l72
80 51 -3 c50 -3 52 -4 99 -68z"/>
<path d="M503 550 c-62 -13 -117 -45 -150 -87 -58 -74 -68 -114 -33 -133 29
-16 51 -5 83 40 33 48 76 76 131 86 23 3 47 11 54 16 17 14 15 53 -4 72 -17
17 -20 18 -81 6z"/>
<path d="M710 341 c-14 -5 -49 -20 -77 -35 -42 -21 -53 -31 -53 -51 0 -13 9
-30 20 -38 18 -13 27 -12 78 9 67 28 86 29 142 9 61 -21 85 -19 98 9 17 37 -8
62 -84 86 -71 21 -85 23 -124 11z"/>
</g>
</svg>
