<?xml version="1.0" standalone="no"?>
<!DOCTYPE svg PUBLIC "-//W3C//DTD SVG 20010904//EN"
 "http://www.w3.org/TR/2001/REC-SVG-20010904/DTD/svg10.dtd">
<svg version="1.0" xmlns="http://www.w3.org/2000/svg"
 width="248.000000pt" height="238.000000pt" viewBox="0 0 248.000000 238.000000"
 preserveAspectRatio="xMidYMid meet">

<g transform="translate(0.000000,238.000000) scale(0.100000,-0.100000)"
fill="#ff5c00" stroke="none">
<path d="M1072 2199 c-135 -24 -327 -110 -444 -198 -169 -128 -301 -324 -363
-538 -43 -148 -60 -486 -26 -526 12 -16 95 -17 1012 -17 977 0 999 0 1009 19
13 25 13 239 0 356 -27 236 -118 429 -285 603 -127 133 -275 222 -462 278 -74
22 -112 27 -238 30 -82 1 -174 -1 -203 -7z m258 -519 l0 -440 -85 0 -85 0 0
433 c0 239 3 437 7 440 3 4 42 7 85 7 l78 0 0 -440z m-260 -10 l0 -430 -375 0
-375 0 6 58 c41 363 310 683 659 783 33 10 66 18 73 18 9 1 12 -91 12 -429z
m465 403 c330 -103 590 -422 631 -775 l7 -58 -377 0 -376 0 0 431 0 431 33 -7
c17 -3 55 -13 82 -22z m633 -995 l3 -68 -926 0 -925 0 0 63 c0 35 3 67 7 70 3
4 419 6 922 5 l916 -3 3 -67z"/>
<path d="M688 656 c-97 -40 -165 -107 -183 -179 -7 -25 -11 -27 -39 -22 -81
17 -134 69 -151 147 -6 33 -46 48 -71 27 -12 -10 -15 -25 -11 -62 9 -96 103
-182 226 -206 43 -9 62 -17 66 -31 12 -37 82 -88 151 -110 76 -23 220 -50 268
-50 81 0 169 54 196 121 15 36 56 59 104 59 52 0 83 -18 111 -66 51 -87 125
-120 243 -109 170 16 308 68 355 134 22 33 36 41 79 50 112 25 206 101 227
188 10 38 9 49 -4 69 -8 13 -24 24 -35 24 -23 0 -50 -36 -50 -66 0 -33 -39
-74 -94 -100 -67 -31 -82 -30 -89 4 -14 68 -95 145 -194 182 -49 18 -74 21
-153 18 -82 -3 -102 -8 -149 -33 -65 -36 -115 -92 -140 -159 -15 -39 -24 -50
-38 -48 -36 5 -110 4 -129 -2 -16 -5 -24 5 -48 60 -32 74 -95 136 -168 165
-67 28 -207 25 -280 -5z m250 -82 c78 -32 131 -111 132 -192 0 -37 -6 -50 -35
-79 l-36 -36 -87 6 c-110 8 -255 46 -287 77 -74 69 -20 179 112 226 52 18 155
17 201 -2z m821 1 c34 -11 67 -30 96 -59 40 -37 45 -48 45 -85 0 -35 -6 -49
-33 -76 -27 -27 -50 -36 -143 -59 -137 -32 -221 -34 -257 -5 -63 49 -50 176
26 247 54 51 166 66 266 37z"/>
</g>
</svg>
