<?xml version="1.0" standalone="no"?>
<!DOCTYPE svg PUBLIC "-//W3C//DTD SVG 20010904//EN"
 "http://www.w3.org/TR/2001/REC-SVG-20010904/DTD/svg10.dtd">
<svg version="1.0" xmlns="http://www.w3.org/2000/svg"
 width="258.000000pt" height="240.000000pt" viewBox="0 0 258.000000 240.000000"
 preserveAspectRatio="xMidYMid meet">

<g transform="translate(0.000000,240.000000) scale(0.100000,-0.100000)"
fill="#ff5c00" stroke="none">
<path d="M808 2201 c-194 -62 -338 -266 -338 -477 0 -35 -5 -75 -10 -90 -20
-52 14 -128 72 -160 11 -6 22 -31 28 -64 15 -78 47 -138 102 -191 l48 -46 0
-92 0 -91 -67 0 c-173 -1 -275 -34 -363 -116 -105 -98 -134 -208 -128 -490 3
-140 5 -157 22 -170 17 -12 137 -14 762 -14 674 0 744 2 759 16 14 15 16 44
13 248 l-3 232 -32 65 c-78 157 -215 228 -445 229 l-68 0 0 91 0 92 48 47 c54
53 87 114 103 191 9 40 21 61 56 94 l45 44 -7 108 c-13 208 -49 318 -136 417
-111 126 -301 178 -461 127z m287 -120 c77 -38 134 -99 163 -177 27 -68 27
-84 3 -84 -47 0 -217 52 -319 99 -63 28 -119 51 -126 51 -7 0 -23 -12 -37 -26
-30 -33 -114 -74 -151 -74 -33 0 -33 0 -8 51 89 174 301 245 475 160z m-189
-257 c92 -41 220 -82 307 -99 43 -8 81 -15 83 -15 2 0 4 -15 5 -32 0 -18 4
-42 8 -53 12 -28 -5 -55 -34 -55 -38 0 -52 -23 -58 -99 -7 -81 -43 -160 -89
-192 -121 -87 -276 -84 -396 8 -45 34 -71 94 -72 163 0 74 -17 104 -58 108
-31 3 -59 32 -45 46 4 4 10 41 13 84 l5 77 60 7 c65 7 126 29 164 59 31 25 37
24 107 -7z m29 -709 c28 0 67 4 88 8 l37 8 0 -61 c0 -111 -41 -160 -133 -160
-77 0 -117 54 -117 160 l0 59 38 -7 c20 -4 60 -7 87 -7z m-144 -252 c23 -28
91 -53 144 -53 53 0 121 25 144 53 11 15 36 17 165 17 172 0 210 -11 279 -78
76 -73 82 -93 85 -309 l4 -193 -101 0 -101 0 0 136 c0 74 -5 144 -10 155 -14
26 -66 26 -80 0 -5 -11 -10 -81 -10 -155 l0 -136 -375 0 -375 0 0 139 c0 150
-7 171 -54 171 -42 0 -46 -16 -46 -167 l0 -143 -100 0 -100 0 0 183 c0 171 2
185 24 232 29 61 86 117 146 144 39 18 66 21 196 21 129 0 154 -2 165 -17z"/>
<path d="M1702 2183 c-48 -24 -85 -76 -85 -121 0 -20 67 -286 148 -590 l147
-553 -51 -54 c-68 -72 -92 -128 -99 -230 -8 -144 39 -290 139 -422 47 -62 83
-76 204 -76 111 -1 182 28 255 102 61 61 111 149 103 181 -3 12 -20 28 -37 37
-75 38 -94 68 -136 223 -35 130 -50 162 -96 211 -34 35 -36 43 -168 620 -73
322 -141 600 -150 617 -18 34 -80 72 -118 72 -13 0 -38 -8 -56 -17z m98 -132
c14 -47 250 -1082 250 -1094 0 -4 -10 -7 -22 -5 -21 3 -33 41 -165 538 -78
294 -142 548 -142 563 -1 20 5 30 22 36 32 12 46 4 57 -38z m334 -1242 c41
-49 66 -115 66 -178 0 -84 17 -121 85 -188 l63 -62 -18 -29 c-19 -31 -88 -92
-105 -92 -23 0 -102 218 -114 316 -10 78 -19 94 -57 94 -70 0 -61 -127 23
-338 18 -46 33 -87 33 -91 0 -11 -109 5 -126 20 -25 21 -102 185 -114 246 -34
164 31 315 142 334 79 12 85 11 122 -32z"/>
</g>
</svg>
